<svg height="512pt" viewBox="0 0 512 511" width="512pt" xmlns="http://www.w3.org/2000/svg"><path d="m512 512.488281h-512l.00390625-22.546875c.00390625-18.070312 10.74999975-34.320312 27.38281275-41.398437l139.484375-59.34375h178.257812l139.484375 59.34375c16.625 7.074219 27.375 23.324219 27.378907 41.398437zm0 0" fill="#ff5c42"/><path d="m484.613281 448.542969-139.484375-59.34375h-89.128906v123.289062h256l-.007812-22.546875c-.003907-18.074218-10.75-34.324218-27.378907-41.398437zm0 0" fill="#d9311c"/><path d="m390.996094 179.148438h-269.996094c-8.28125 0-15-6.714844-15-15v-5.191407c0-48.28125 9.996094-84.492187 30.558594-110.699219 24.863281-31.6875 65.050781-47.757812 119.441406-47.757812s94.578125 16.066406 119.441406 47.757812c20.5625 26.207032 30.554688 62.417969 30.554688 110.699219v5.191407c0 8.285156-6.714844 15-15 15zm0 0" fill="#db703d"/><path d="m390.996094 179.148438c8.285156 0 15-6.714844 15-15v-5.191407c0-48.28125-9.992188-84.492187-30.554688-110.699219-24.863281-31.6875-65.050781-47.757812-119.441406-47.757812v178.648438zm0 0" fill="#af5a2b"/><path d="m163.953125 303.65625h-45c-30.324219 0-54.996094-24.675781-54.996094-55v-44.511719c0-30.324219 24.671875-54.996093 54.996094-54.996093h45zm0 0" fill="#2d5078"/><path d="m393.042969 303.65625h-45v-154.507812h45c30.328125 0 55 24.671874 55 54.996093v44.511719c0 30.328125-24.671875 55-55 55zm0 0" fill="#18304a"/><path d="m158.230469 325.171875v51.347656s-4.269531 105.96875 97.769531 105.96875 97.769531-105.96875 97.769531-105.96875v-51.347656zm0 0" fill="#ffbea0"/><path d="m353.769531 325.167969h-97.769531v157.316406c102.039062 0 97.769531-105.964844 97.769531-105.964844zm0 0" fill="#ff9e7a"/><path d="m256 417.507812c-67.269531 0-122-54.726562-122-121.996093v-121.363281c0-36.816407 10.972656-62.410157 32.605469-76.0625 31.035156-19.589844 73.347656-6.195313 89.394531.117187 16.042969-6.3125 58.359375-19.707031 89.394531-.117187 21.632813 13.652343 32.601563 39.246093 32.601563 76.0625v121.363281c0 67.269531-54.726563 121.996093-121.996094 121.996093zm0 0" fill="#ffd2b4"/><path d="m345.394531 98.082031c-31.035156-19.585937-73.351562-6.195312-89.394531.121094v319.304687c67.269531 0 121.996094-54.726562 121.996094-121.996093v-121.363281c0-36.816407-10.96875-62.410157-32.601563-76.066407zm0 0" fill="#ffbea0"/><path d="m289 346.894531h-17.609375c-8.285156 0-15-6.714843-15-15 0-8.28125 6.714844-15 15-15h17.609375c10.835938 0 21.332031-3.160156 30.363281-9.140625l64.636719-45.285156c6.773438-4.769531 16.128906-3.148438 20.902344 3.625 4.769531 6.773438 3.144531 16.128906-3.628906 20.898438l-64.804688 45.40625c-.101562.070312-.207031.144531-.3125.214843-14.011719 9.34375-30.316406 14.28125-47.15625 14.28125zm0 0" fill="#7e9bcc"/></svg>